IKResults
version=1
nRows=4
nColumns=63
inDegrees=yes

Units are S.I. units (second, meters, Newtons, ...)
If the header above contains a line with 'inDegrees', this indicates whether rotational values are in degrees (yes) or radians (no).

endheader
time	pelvis_tilt	pelvis_list	pelvis_rotation	pelvis_tx	pelvis_ty	pelvis_tz	hip_flexion_r	hip_adduction_r	hip_rotation_r	knee_angle_r	knee_angle_r_beta	ankle_angle_r	subtalar_angle_r	mtp_angle_r	hip_flexion_l	hip_adduction_l	hip_rotation_l	knee_angle_l	knee_angle_l_beta	ankle_angle_l	subtalar_angle_l	mtp_angle_l	L5_S1_Flex_Ext	L5_S1_Lat_Bending	L5_S1_axial_rotation	L4_L5_Flex_Ext	L4_L5_Lat_Bending	L4_L5_axial_rotation	L3_L4_Flex_Ext	L3_L4_Lat_Bending	L3_L4_axial_rotation	L2_L3_Flex_Ext	L2_L3_Lat_Bending	L2_L3_axial_rotation	L1_L2_Flex_Ext	L1_L2_Lat_Bending	L1_L2_axial_rotation	L1_T12_Flex_Ext	L1_T12_Lat_Bending	L1_T12_axial_rotation	Abs_r3	Abs_r2	Abs_r1	Abs_t1	Abs_t2	neck_flexion	neck_bending	neck_rotation	arm_flex_r	arm_add_r	arm_rot_r	elbow_flex_r	pro_sup_r	wrist_flex_r	wrist_dev_r	arm_flex_l	arm_add_l	arm_rot_l	elbow_flex_l	pro_sup_l	wrist_flex_l	wrist_dev_l
      2.03333333	    -98.57418220	     11.03731389	     70.17845771	     -0.77510342	      0.33851894	     -0.25359883	    121.60177622	     12.73008759	     -4.14786960	     72.27344121	      1.26140951	   -130.53938985	    -13.35164373	      0.00000000	     89.96826588	    -13.18734432	    -16.44494183	     24.13405780	      0.42121877	      0.35151053	    -19.41115743	      0.00000000	     11.68102685	     -3.81189102	     -5.11380586	     21.69283497	     -5.06981506	     -5.43341872	     19.19075902	     -9.26823183	     -5.43341872	     13.35024559	     -9.26823183	     -4.47458013	     10.84700154	     -7.77320817	     -4.15496726	      6.67453874	     -5.90461919	     -3.83535439	     83.43640671	    -43.12087361	    -28.44145404	      0.00000000	      0.00000000	    -13.86288628	     12.63584730	     -7.67207358	     26.73707666	    -46.39756004	    -14.72984562	     69.13473790	     89.99559364	      0.00000000	      0.00000000	    -21.25422256	     -3.15392621	     24.06548525	     67.79940671	     89.99559364	      0.00000000	      0.00000000
      2.06666667	    -99.90633570	      4.20500593	     75.41412400	     -0.78703838	      0.33124173	     -0.23521794	    128.21179357	     11.45746219	     -3.20717403	     69.73164653	      1.21704682	   -128.70902633	    -13.04806794	      0.00000000	     95.80765388	    -10.98557791	    -11.99267995	     22.58192563	      0.39412895	     -4.97527618	    -19.40625326	      0.00000000	     12.71833110	     -3.34348301	     -5.44071788	     23.61921268	     -4.44683241	     -5.78076275	     20.89494616	     -8.12934460	     -5.78076275	     14.53578061	     -8.12934460	     -4.76062815	     11.81024226	     -6.81803056	     -4.42058328	      7.26725439	     -5.17905519	     -4.08053841	     90.84576721	    -37.82214855	    -30.25964065	      0.00000000	      0.00000000	    -14.23892903	      9.63918377	     -8.21788947	     47.88130230	    -55.08613687	      7.77780575	     65.27310363	     89.99559364	      0.00000000	      0.00000000	    -23.01934687	      1.95314384	     21.80135587	     67.46810882	     89.99559364	      0.00000000	      0.00000000
      2.10000000	    -97.50045210	     -7.05790892	     78.27132840	     -0.80685914	      0.33227320	     -0.22256438	    139.04599672	      8.60402650	     -6.32120866	     67.23570649	      1.17348445	   -126.44376998	    -12.79030080	      0.00000000	    108.01372093	     -9.65823802	      0.77233010	     24.71647635	      0.43138389	     -9.25605675	    -19.46802812	      0.00000000	     13.99997761	     -2.23010205	     -5.59831174	     25.99935842	     -2.96603572	     -5.94820623	     23.00056322	     -5.42227012	     -5.94820623	     16.00057441	     -5.42227012	     -4.89852278	     13.00037921	     -4.54762409	     -4.54862829	      7.99958721	     -3.45442807	     -4.19873381	    100.00044007	    -25.22736037	    -31.13613043	      0.00000000	      0.00000000	    -10.77131832	      0.79565771	     -8.19387405	    102.18558943	    -62.66047403	     75.45778646	     59.65314893	     89.99559364	      0.00000000	      0.00000000	    -21.58712436	      8.92349300	     24.42975883	     65.03114261	     89.99559364	      0.00000000	      0.00000000
      2.13333333	    -95.21805660	    -11.07737030	     81.46752488	     -0.81829976	      0.33413086	     -0.20157264	    143.17974908	      6.79684863	     -7.16205274	     64.91448860	      1.13297156	   -122.93816231	    -12.39125920	      0.00000000	    112.00336370	     -7.93830955	     11.03523351	     25.63913017	      0.44748724	    -14.14264247	    -19.47961050	      0.00000000	     14.47162468	     -1.61739243	     -5.05772711	     26.87525419	     -2.15113194	     -5.37383506	     23.77543218	     -3.93252796	     -5.37383506	     16.53961984	     -3.93252796	     -4.42551122	     13.43835067	     -3.29818665	     -4.10940328	      8.26908634	     -2.50534088	     -3.79329533	    103.36936790	    -18.29626668	    -28.12956088	      0.00000000	      0.00000000	     -7.77470221	     -5.51003975	     -7.98015202	    136.01274252	    -50.51592963	    121.36374882	     54.52659941	     89.99559364	      0.00000000	      0.00000000	    -19.87820992	     11.22634440	     27.79574458	     64.50230660	     89.99559364	      0.00000000	      0.00000000
